# xmcd
#
# Track frame offsets: 
#        150
#        28543
#        50876
#        77919
#        120638
#        148130
#        171815
#        211943
#        250792
#        283062
#
# Disc length: 3924 seconds
#
# Revision: 1
# Processed by: cddbd v1.5.2PL0 Copyright (c) Steve Scherf et al.
# Submitted via: ExactAudioCopy v0.99pb3
#
DISCID=930f520a
DTITLE=Sonny Rollins Quintet - Modern Jazz Sonny Rollins 1956 CD 052
DYEAR=1956
DGENRE=Jazz
TTITLE0=There's No Business Like Show Business
TTITLE1=Paradox
TTITLE2=Raincheck
TTITLE3=There Are Such Things
TTITLE4=It's All Right With Me
TTITLE5=I feel A Song Coming Up
TTITLE6=Pent-Up house
TTITLE7=Valse hot
TTITLE8=Kiss And Run
TTITLE9=Count Your Blessings
EXTD=YEAR: 2008
EXTT0=
EXTT1=
EXTT2=
EXTT3=
EXTT4=
EXTT5=
EXTT6=
EXTT7=
EXTT8=
EXTT9=
PLAYORDER=
